<svg width="24" height="26" viewBox="0 0 24 26" fill="none" xmlns="http://www.w3.org/2000/svg">
<path d="M12 1L12.3035 0.602616L12 0.370885L11.6965 0.602616L12 1ZM1 9.4L0.696543 9.00262L0.5 9.1527V9.4H1ZM23 9.4H23.5V9.1527L23.3035 9.00262L23 9.4ZM15.6667 25H15.1667V25.5H15.6667V25ZM15.6667 13H16.1667V12.5H15.6667V13ZM8.33333 13V12.5H7.83333V13H8.33333ZM8.33333 25V25.5H8.83333V25H8.33333ZM1.71596 24.2971L1.36567 24.6538L1.36567 24.6538L1.71596 24.2971ZM11.6965 0.602616L0.696543 9.00262L1.30346 9.79738L12.3035 1.39738L11.6965 0.602616ZM23.3035 9.00262L12.3035 0.602616L11.6965 1.39738L22.6965 9.79738L23.3035 9.00262ZM23.5 22.6V9.4H22.5V22.6H23.5ZM22.6343 24.6538C23.1875 24.1107 23.5 23.3721 23.5 22.6H22.5C22.5 23.1009 22.2974 23.5832 21.9337 23.9403L22.6343 24.6538ZM20.5556 25.5C21.3335 25.5 22.0815 25.1967 22.6343 24.6538L21.9337 23.9403C21.5698 24.2976 21.0742 24.5 20.5556 24.5V25.5ZM15.6667 25.5H20.5556V24.5H15.6667V25.5ZM15.1667 13V25H16.1667V13H15.1667ZM8.33333 13.5H15.6667V12.5H8.33333V13.5ZM8.83333 25V13H7.83333V25H8.83333ZM8 25.5H8.33333V24.5H8V25.5ZM8 24.5H7V25.5H8V24.5ZM3.44444 25.5H7V24.5H3.44444V25.5ZM1.36567 24.6538C1.91853 25.1967 2.66646 25.5 3.44444 25.5V24.5C2.92582 24.5 2.43023 24.2976 2.06626 23.9403L1.36567 24.6538ZM0.5 22.6C0.5 23.3721 0.812489 24.1107 1.36567 24.6538L2.06626 23.9403C1.70259 23.5832 1.5 23.1009 1.5 22.6H0.5ZM0.5 9.4V22.6H1.5V9.4H0.5ZM15.6667 24.5H8.33333V25.5H15.6667V24.5Z" fill="#870337"/>
</svg>
