<svg width="23" height="23" viewBox="0 0 23 23" fill="none" xmlns="http://www.w3.org/2000/svg">
<path fill-rule="evenodd" clip-rule="evenodd" d="M17.25 0H5.75C2.57436 0 0 2.57436 0 5.75V17.25C0 20.4256 2.57436 23 5.75 23H17.25C20.4256 23 23 20.4256 23 17.25V5.75C23 2.57436 20.4256 0 17.25 0ZM16.1 10.7755C16.2419 11.7326 16.0784 12.71 15.6328 13.5689C15.1872 14.4277 14.4821 15.1241 13.6179 15.5591C12.7536 15.9941 11.7742 16.1455 10.819 15.9918C9.8637 15.8381 8.98123 15.3871 8.29707 14.7029C7.61291 14.0188 7.16189 13.1363 7.00818 12.181C6.85446 11.2258 7.00588 10.2464 7.44088 9.38213C7.87588 8.51788 8.57232 7.8128 9.43113 7.36718C10.29 6.92155 11.2674 6.75808 12.2245 6.9C13.2008 7.04477 14.1046 7.49968 14.8024 8.19755C15.5003 8.89542 15.9552 9.79924 16.1 10.7755ZM18.4 5.75C19.0351 5.75 19.55 5.23513 19.55 4.6C19.55 3.96487 19.0351 3.45 18.4 3.45C17.7649 3.45 17.25 3.96487 17.25 4.6C17.25 5.23513 17.7649 5.75 18.4 5.75Z" fill="#870337"/>
</svg>
