<svg width="33" height="33" viewBox="0 0 33 33" fill="none" xmlns="http://www.w3.org/2000/svg">
<path fill-rule="evenodd" clip-rule="evenodd" d="M3.95841 21.7737L0.0319094 32.0675C0.00393573 32.1404 -0.00585875 32.219 0.00337001 32.2966C0.0125988 32.3742 0.0405734 32.4483 0.0848788 32.5127C0.129184 32.577 0.188487 32.6296 0.257663 32.6658C0.326839 32.7021 0.403807 32.721 0.481919 32.7209H32.2402C32.3183 32.721 32.3952 32.7021 32.4644 32.6658C32.5336 32.6296 32.5929 32.577 32.6372 32.5127C32.6815 32.4483 32.7095 32.3742 32.7187 32.2966C32.7279 32.219 32.7181 32.1404 32.6902 32.0675L28.7642 21.7737C28.7294 21.6826 28.6677 21.6041 28.5874 21.5488C28.507 21.4935 28.4118 21.4638 28.3142 21.4638H20.8829L20.9164 21.4099C20.9505 21.355 20.9846 21.3002 21.0188 21.2436C23.8783 16.5101 25.3172 12.3684 25.2965 8.93371C25.2961 6.56394 24.3544 4.29139 22.6784 2.616C21.0024 0.9406 18.7296 -0.000401336 16.3598 1.28406e-07C13.99 0.000401629 11.7175 0.942173 10.0421 2.61814C8.36669 4.2941 7.42569 6.56697 7.42609 8.93674C7.40545 12.3684 8.84438 16.5095 11.7038 21.2436C11.7281 21.2833 11.7523 21.3223 11.7765 21.3613L11.7767 21.3618C11.7977 21.3956 11.8187 21.4295 11.8398 21.4638H4.40842C4.31085 21.4638 4.2156 21.4935 4.13525 21.5488C4.0549 21.6041 3.99323 21.6826 3.95841 21.7737ZM16.5631 27.4396C16.6265 27.4103 16.6827 27.3676 16.7279 27.3144C18.007 25.7563 19.1927 24.1239 20.279 22.4257H24.5424L19.177 29.3971L4.1241 24.0435L4.74063 22.4265H12.4436C13.5297 24.1244 14.7153 25.7566 15.9941 27.3144C16.0394 27.3676 16.0956 27.4103 16.1589 27.4396C16.2223 27.4689 16.2913 27.484 16.361 27.484C16.4308 27.484 16.4998 27.4689 16.5631 27.4396ZM19.191 30.4246H19.1938L22.9391 31.7576H6.72782L10.2109 27.2319L19.191 30.4246ZM25.7581 22.4257H27.982L31.5411 31.7573H25.8134L20.1318 29.7365L25.7581 22.4257ZM9.25668 26.8909L5.51101 31.7576H1.18047L3.77951 24.943L9.25668 26.8909ZM16.5141 11.3122C18.9462 11.3122 20.9178 9.34058 20.9178 6.90845C20.9178 4.47632 18.9462 2.50469 16.5141 2.50469C14.082 2.50469 12.1103 4.47632 12.1103 6.90845C12.1103 9.34058 14.082 11.3122 16.5141 11.3122Z" fill="#870337"/>
</svg>
