<?xml version="1.0" encoding="utf-8"?>
<!-- Generator: Adobe Illustrator 23.0.1, SVG Export Plug-In . SVG Version: 6.00 Build 0)  -->
<svg version="1.1" id="Layer_1" xmlns="http://www.w3.org/2000/svg" xmlns:xlink="http://www.w3.org/1999/xlink" x="0px" y="0px"
	 viewBox="0 0 166 70" style="enable-background:new 0 0 166 70;" xml:space="preserve">
<style type="text/css">
	.st0{fill:#870337;}
	.st1{fill-rule:evenodd;clip-rule:evenodd;fill:#870337;}
</style>
<path class="st0" d="M36.4,16.7L36,16.4c-0.2-0.1-3.8-3.4-3.8-7.1c0-4.1,3.7-7.1,3.9-7.2l0.4-0.3L36.8,2c0.2,0.1,4,3.1,4,7.3
	c0,3.8-3.8,7-4,7.1L36.4,16.7z"/>
<path class="st0" d="M43.1,5.6c3.6,1.4,6,3.9,6,6.5c0,4-5.7,7.2-12.7,7.2c-7,0-12.7-3.2-12.7-7.2c0-2.5,2.3-5,5.7-6.4
	c-5.3,1.2-9.1,3.8-9.1,6.7c0,4.1,7.3,7.5,16.1,7.5c8.8,0,16.1-3.4,16.1-7.5C52.7,9.4,48.7,6.8,43.1,5.6z"/>
<path class="st0" d="M49.3,46.4h-2.9V28.2h2.9V46.4z M55.4,28.2h3.7l-6.7,9.1l6.8,9.1h-3.9l-6.4-9.1L55.4,28.2z"/>
<path class="st0" d="M2.8,42l8-13.8h3.4v18.2h-2.8V32.7l-8,13.7H0V28.1h2.8V42z"/>
<path class="st0" d="M24.6,28.1h-6.1v18.2h2.9V40h2.3c4.3,0,6.4-2.6,6.4-6.2C30.2,30.4,28.4,28.1,24.6,28.1z M23.7,37.4h-2.2v-6.6
	h2.8c1.8,0,2.9,1.1,2.9,3.2C27.2,36.2,25.8,37.4,23.7,37.4z"/>
<path class="st0" d="M32.9,46.4h10.3v-2.7h-7.4v-5.3h6.9v-2.7h-6.9v-4.9h7.4v-2.7H32.9V46.4z"/>
<path class="st0" d="M72.7,42.2c-0.8,0.8-2.3,1.6-4.3,1.6c-3.1,0-5.2-2-5.2-6.4c0-4.5,2.1-6.7,5.3-6.7c1.9,0,3.3,0.7,4.1,1.5
	c0.6-0.5,0.9-1.1,0.9-1.8c0-1.7-2.7-2.5-5-2.5c-5,0-8.4,3.2-8.4,9.7c0,6.5,3,9.3,8.1,9.3c2.5,0,5.5-0.9,5.5-2.7
	C73.6,43.4,73.3,42.7,72.7,42.2z"/>
<path class="st1" d="M128.5,15.5l-0.4-0.4c-0.2-0.1-3.9-3.6-3.9-7.4c0-4.2,3.8-7.4,3.9-7.5l0.4-0.3l0.4,0.3c0.2,0.1,4.1,3.2,4.1,7.5
	c0,3.9-3.9,7.2-4,7.4L128.5,15.5z"/>
<path class="st1" d="M135.4,4c3.6,1.5,6.1,4.1,6.1,6.8c0,4.1-5.8,7.5-12.9,7.5c-7.1,0-12.9-3.3-12.9-7.5c0-2.6,2.3-5.2,5.8-6.7
	c-5.4,1.3-9.3,3.9-9.3,7c0,4.3,7.5,7.8,16.5,7.8c9,0,16.5-3.5,16.5-7.8C145.1,7.9,141,5.2,135.4,4z"/>
<path class="st1" d="M99,46.6h-3.1V30.9h-4.6v-3.3h12.3v3.3H99V46.6z"/>
<path class="st1" d="M122.7,42l8.1-14.4h3.5v19h-2.8V32.3l-8.1,14.3h-3.5v-19h2.8V42z"/>
<path class="st1" d="M111.1,37.1h-2.3v-6.9h2.8c1.8,0,3,1.2,3,3.3C114.6,35.9,113.3,37.1,111.1,37.1z M112.1,27.5h-6.1v19h3v-6.6
	h2.4c4.3,0,6.5-2.7,6.5-6.5C117.8,29.9,115.9,27.5,112.1,27.5z"/>
<path class="st1" d="M159.4,37.2h-2.3v-6.8h2.8c1.8,0,3,1.2,3,3.3C162.9,36,161.5,37.2,159.4,37.2z M160.3,27.6h-6.1v18.9h3V40h2.4
	c4.3,0,6.5-2.7,6.5-6.5C166,30,164.2,27.6,160.3,27.6z"/>
<path class="st1" d="M142.7,27.1c-2.6,0-5.6,0.9-5.6,2.7c0,0.7,0.3,1.4,0.9,1.9c0.8-0.8,2.3-1.6,4.4-1.6c2.8,0,4.8,1.6,5.2,5.2h-6.7
	v3.1h6.7c-0.5,3.5-2.4,5.3-5.2,5.3c-2,0-3.3-0.8-4.2-1.5c-0.6,0.5-1,1.2-1,1.9c0,1.7,2.8,2.5,5.1,2.5c5,0,8.5-3.3,8.5-9.9
	C150.9,30,147.8,27.1,142.7,27.1z"/>
<rect x="82.2" y="1.7" class="st0" width="0.8" height="45.2"/>
<path class="st0" d="M39.9,61.8h-3.1v4.8h0.9v-4h2.1V61.8z M42.2,68.4h0.9v-2.5h0.1c0.2,0.3,0.5,0.8,1.4,0.8c1.2,0,2-0.9,2-2.5
	c0-1.6-0.9-2.5-2-2.5c-0.9,0-1.2,0.5-1.4,0.8h-0.1v-0.8h-0.9V68.4z M43.1,64.2c0-1,0.4-1.7,1.3-1.7c0.8,0,1.3,0.7,1.3,1.7
	c0,1-0.4,1.7-1.3,1.7C43.6,65.9,43.1,65.2,43.1,64.2z M49.4,68.4c0.8,0,1.3-0.4,1.5-1.2l2-5.4l-1,0l-1.2,3.7h0l-1.2-3.7h-1l1.8,4.9
	L50.1,67c-0.2,0.6-0.6,0.7-1.1,0.5l-0.2,0.8C48.9,68.3,49.2,68.4,49.4,68.4z M55.2,66.6h0.9v-4h2.1v4h0.9v-4.8h-3.9V66.6z
	 M61.7,66.6h0.9v-4h2.1v4h0.9v-4.8h-3.9V66.6z M69.7,66.7c0.8,0,1.2-0.4,1.4-0.8h0v0.7H72v-3.2c0-1.4-1.1-1.7-1.9-1.7
	c-0.9,0-1.7,0.3-2,1.2l0.9,0.2c0.1-0.3,0.5-0.7,1.1-0.7c0.6,0,0.9,0.3,0.9,0.9v0c0,0.3-0.3,0.3-1.2,0.4C69,63.9,68,64.1,68,65.2
	C68,66.2,68.8,66.7,69.7,66.7z M69.9,65.9c-0.5,0-0.9-0.2-0.9-0.7c0-0.5,0.4-0.7,1-0.7c0.3,0,1-0.1,1.2-0.3v0.6
	C71.1,65.4,70.6,65.9,69.9,65.9z M78.3,66.6h0.9v-1.9h0.6l1.4,1.9h1.2l-1.9-2.5l1.9-2.3h-1.2l-1.6,2h-0.4v-2h-0.9V66.6z M86.4,66.7
	c1.4,0,2.2-1,2.2-2.5c0-1.5-0.9-2.5-2.2-2.5s-2.2,1-2.2,2.5C84.2,65.7,85.1,66.7,86.4,66.7z M86.4,65.9c-0.9,0-1.3-0.8-1.3-1.7
	c0-0.9,0.4-1.7,1.3-1.7c0.9,0,1.3,0.8,1.3,1.7C87.7,65.1,87.3,65.9,86.4,65.9z M93.8,65.4l-1.5-3.6h-1.2v4.8H92v-3.5l1.4,3.5h0.7
	l1.5-3.5v3.5h0.9v-4.8h-1.2L93.8,65.4z M99.1,66.6h0.9v-4h2.1v4h0.9v-4.8h-3.9V66.6z M107,66.7c0.8,0,1.2-0.4,1.4-0.8h0v0.7h0.9
	v-3.2c0-1.4-1.1-1.7-1.9-1.7c-0.9,0-1.7,0.3-2,1.2l0.9,0.2c0.1-0.3,0.5-0.7,1.1-0.7c0.6,0,0.9,0.3,0.9,0.9v0c0,0.3-0.3,0.3-1.2,0.4
	c-0.9,0.1-1.8,0.3-1.8,1.4C105.4,66.2,106.1,66.7,107,66.7z M107.2,65.9c-0.5,0-0.9-0.2-0.9-0.7c0-0.5,0.4-0.7,1-0.7
	c0.3,0,1-0.1,1.2-0.3v0.6C108.4,65.4,108,65.9,107.2,65.9z M112.9,61.8H112v4.8h0.9v-2h2.1v2h0.9v-4.8H115v2h-2.1V61.8z M119.4,65.3
	v-3.5h-0.9v4.8h1l2.1-3.5v3.5h0.9v-4.8h-1L119.4,65.3z M126.1,65.3v-3.5h-0.9v4.8h1l2.1-3.5v3.5h0.9v-4.8h-1L126.1,65.3z
	 M127.8,60.2c0,0.3-0.2,0.6-0.6,0.6c-0.4,0-0.6-0.3-0.6-0.6h-0.8c0,0.7,0.5,1.2,1.4,1.2c0.8,0,1.4-0.5,1.4-1.2H127.8z"/>
</svg>
