<svg width="25" height="18" viewBox="0 0 25 18" fill="none" xmlns="http://www.w3.org/2000/svg">
<path fill-rule="evenodd" clip-rule="evenodd" d="M23.6797 1.34989C24.0668 1.75875 24.3417 2.26503 24.4767 2.81759C24.8371 4.86524 25.0121 6.94264 24.9994 9.02329C25.0065 11.0728 24.8316 13.1188 24.4767 15.1358C24.3417 15.6884 24.0668 16.1947 23.6797 16.6035C23.2926 17.0124 22.8071 17.3094 22.2722 17.4644C20.3178 18 12.5 18 12.5 18C12.5 18 4.68222 18 2.72778 17.4644C2.20374 17.3175 1.72554 17.0346 1.33938 16.643C0.953221 16.2514 0.672159 15.7644 0.52335 15.229C0.162877 13.1813 -0.0121006 11.1039 0.000649562 9.02329C-0.00930909 6.95819 0.165658 4.89651 0.52335 2.86417C0.65833 2.3116 0.933233 1.80532 1.32029 1.39646C1.70735 0.987602 2.19286 0.690642 2.72778 0.535576C4.68222 4.85782e-08 12.5 0 12.5 0C12.5 0 20.3178 9.71564e-08 22.2722 0.489004C22.8071 0.64407 23.2926 0.941031 23.6797 1.34989ZM16.4771 9.02329L9.94332 12.8305V5.21604L16.4771 9.02329Z" fill="#870337"/>
</svg>
